<?xml version="1.0" encoding="UTF-8"?>
<svg version="1.1" xmlns="http://www.w3.org/2000/svg" width="177" height="150">
<path d="M0 0 C2.35125393 2.27426073 4.43457895 4.7549389 6.546875 7.25 C9.64501068 10.72860848 13.03478952 13.90214566 16.4140625 17.10546875 C20.03386591 21.16203089 20.7918682 24.86245718 20.859375 30.2109375 C20.88451172 31.29117188 20.90964844 32.37140625 20.93554688 33.484375 C20.97058075 35.73692349 21.00185736 37.98953369 21.02929688 40.2421875 C21.18089968 46.45420503 21.6015471 51.00533882 24.55078125 56.5 C24.92460937 57.26828125 25.2984375 58.0365625 25.68359375 58.828125 C26.17472656 59.77945313 26.17472656 59.77945313 26.67578125 60.75 C29.96681822 67.12797863 30.63085734 73.11463082 28.90234375 80.1328125 C26.4599459 86.95900137 22.89212614 92.15616071 16.41772461 95.65161133 C9.64476946 98.52603568 3.55237238 99.19009532 -3.76171875 99.3125 C-4.88876221 99.34400146 -6.01580566 99.37550293 -7.17700195 99.40795898 C-16.92845157 99.62285751 -26.61242466 99.24760809 -36.34033203 98.60498047 C-38.30269185 98.50729412 -40.26971186 98.52066607 -42.234375 98.54296875 C-45.20614684 98.50324883 -47.39947457 98.18324806 -50.19921875 97.25 C-50.9365625 97.01796875 -51.67390625 96.7859375 -52.43359375 96.546875 C-55.05417503 95.1857979 -56.03378435 94.10578444 -57.44921875 91.5 C-57.85309668 88.96574307 -58.05811314 86.6743101 -58.13671875 84.125 C-58.16942871 83.32900391 -58.20213867 82.53300781 -58.23583984 81.71289062 C-58.94498064 60.92643551 -58.75349512 40.03409255 -58.07421875 19.25 C-58.04344238 18.19361328 -58.01266602 17.13722656 -57.98095703 16.04882812 C-57.33050833 -0.54436105 -57.33050833 -0.54436105 -53.79980469 -4.21459961 C-50.71811482 -5.89979873 -48.12174831 -6.16653865 -44.62890625 -6.51953125 C-43.64085495 -6.62016121 -43.64085495 -6.62016121 -42.63284302 -6.7228241 C-41.23990052 -6.8609499 -39.84629341 -6.99251127 -38.45214844 -7.11791992 C-36.34963319 -7.31017608 -34.25164166 -7.53146359 -32.15234375 -7.75585938 C-19.91841154 -8.97204356 -9.64159852 -8.37100026 0 0 Z " fill="#3A4569" transform="translate(106.44921875,22.5)"/>
<path d="M0 0 C0.66 0 1.32 0 2 0 C2.04125 1.299375 2.0825 2.59875 2.125 3.9375 C2.66203329 8.83984678 4.49893468 11.78658445 7.3671875 15.71484375 C9.91787235 19.28458211 11.93523998 23.13542703 14 27 C14.66 25.35 15.32 23.7 16 22 C20.47871577 25.31035513 22.96610947 27.31360207 24 33 C24.91714594 40.72863226 24.26956024 46.28973419 19.85546875 52.80078125 C15.65042074 57.78486974 10.84937415 61.62208108 4.21484375 62.2734375 C-3.56636154 62.51457139 -9.73251969 61.92121649 -16 57 C-21.54278953 50.54095342 -23.46309569 44.80961635 -23.421875 36.359375 C-22.70696221 30.66655093 -20.26934118 25.68526023 -17 21 C-16.01 20.67 -15.02 20.34 -14 20 C-13.34 22.31 -12.68 24.62 -12 27 C-10.68 27 -9.36 27 -8 27 C-8.05220703 25.7315625 -8.05220703 25.7315625 -8.10546875 24.4375 C-8.31171261 15.79490016 -7.92264785 9.49437492 -2.4375 2.5 C-1.633125 1.675 -0.82875 0.85 0 0 Z " fill="#F24C38" transform="translate(110,57)"/>
<path d="M0 0 C0.061875 1.9490625 0.061875 1.9490625 0.125 3.9375 C0.74448787 9.72242346 3.56950943 13.45281328 7 18 C10.322321 22.54050537 10.53351456 25.48701621 10 31 C8.4375 32.6875 8.4375 32.6875 7 34 C7.22514168 36.22861403 7.22514168 36.22861403 8 39 C9.23718974 45.89971203 9.21821285 50.67851048 6 57 C2.52176885 58.15941038 0.54104422 57.70820884 -3 57 C-3 57.66 -3 58.32 -3 59 C-9.48201439 58.38848921 -9.48201439 58.38848921 -11.703125 56.72265625 C-13.75342831 53.9992112 -13.46310465 51.67026114 -13.37109375 48.36328125 C-12.77985317 44.59801227 -11.13115065 42.13012752 -9 39 C-8.67 39 -8.34 39 -8 39 C-8 40.65 -8 42.3 -8 44 C-6.68 44 -5.36 44 -4 44 C-4.11362262 42.5199159 -4.24122908 41.04089926 -4.375 39.5625 C-4.44460937 38.73878906 -4.51421875 37.91507813 -4.5859375 37.06640625 C-4.72257812 36.38449219 -4.85921875 35.70257813 -5 35 C-5.66 34.67 -6.32 34.34 -7 34 C-6.484375 33.236875 -5.96875 32.47375 -5.4375 31.6875 C-4.963125 30.800625 -4.48875 29.91375 -4 29 C-4.33 28.01 -4.66 27.02 -5 26 C-6.32 26.33 -7.64 26.66 -9 27 C-9.55759693 18.26431473 -9.32878227 8.26836292 -3.48828125 1.16015625 C-2 0 -2 0 0 0 Z " fill="#FC6F3A" transform="translate(112,57)"/>
<path d="M0 0 C2.35125393 2.27426073 4.43457895 4.7549389 6.546875 7.25 C9.64501068 10.72860848 13.03478952 13.90214566 16.4140625 17.10546875 C20.03386591 21.16203089 20.7918682 24.86245718 20.859375 30.2109375 C20.88451172 31.29117188 20.90964844 32.37140625 20.93554688 33.484375 C20.97058075 35.73692349 21.00185736 37.98953369 21.02929688 40.2421875 C21.18089968 46.45420503 21.6015471 51.00533882 24.55078125 56.5 C24.92460937 57.26828125 25.2984375 58.0365625 25.68359375 58.828125 C26.17472656 59.77945313 26.17472656 59.77945313 26.67578125 60.75 C29.96681822 67.12797863 30.63085734 73.11463082 28.90234375 80.1328125 C26.4599459 86.95900137 22.89212614 92.15616071 16.41772461 95.65161133 C9.64476946 98.52603568 3.55237238 99.19009532 -3.76171875 99.3125 C-4.88876221 99.34400146 -6.01580566 99.37550293 -7.17700195 99.40795898 C-16.92685415 99.6228223 -26.60663041 99.23979714 -36.33325195 98.60791016 C-39.37159011 98.45296087 -42.40759856 98.49616924 -45.44921875 98.5 C-47.12479254 98.21479595 -48.7973912 97.90044304 -50.44921875 97.5 C-50.44921875 97.17 -50.44921875 96.84 -50.44921875 96.5 C-49.69832977 96.49413376 -48.9474408 96.48826752 -48.17379761 96.48222351 C-41.08227294 96.42421492 -33.99106311 96.35209181 -26.89985466 96.26428509 C-23.25454818 96.21964043 -19.60935194 96.18037175 -15.96386719 96.15356445 C-12.44287638 96.12747189 -8.92231112 96.08702858 -5.40158463 96.03681374 C-3.41095874 96.01211642 -1.420168 96.00211553 0.57058716 95.99235535 C1.79139984 95.97256119 3.01221252 95.95276703 4.27001953 95.93237305 C5.34035431 95.92126999 6.41068909 95.91016693 7.51345825 95.89872742 C13.74597209 95.08054833 19.1471175 91.60363176 22.97265625 86.6640625 C27.71938501 79.27729921 27.1761728 72.19043661 26.05078125 63.75 C25.88578125 63.0075 25.72078125 62.265 25.55078125 61.5 C24.06578125 61.005 24.06578125 61.005 22.55078125 60.5 C21.89078125 59.51 21.23078125 58.52 20.55078125 57.5 C19.56078125 59.48 19.56078125 59.48 18.55078125 61.5 C18.22078125 61.5 17.89078125 61.5 17.55078125 61.5 C17.53619873 60.3447583 17.52161621 59.1895166 17.5065918 57.99926758 C17.44851303 53.70322088 17.37128075 49.40769306 17.28833008 45.11206055 C17.25512576 43.2547245 17.22707984 41.39728863 17.2043457 39.53979492 C17.17071683 36.86594202 17.11839751 34.19300007 17.0625 31.51953125 C17.05611008 30.69226028 17.04972015 29.86498932 17.0431366 29.01264954 C16.92559973 24.37847957 16.56306878 21.25058894 13.55078125 17.5 C12.56078125 16.84 11.57078125 16.18 10.55078125 15.5 C10.55078125 14.84 10.55078125 14.18 10.55078125 13.5 C9.97328125 13.2525 9.39578125 13.005 8.80078125 12.75 C6.22138146 11.31700012 4.48956533 9.71575324 2.55078125 7.5 C2.55078125 6.84 2.55078125 6.18 2.55078125 5.5 C1.99390625 5.273125 1.43703125 5.04625 0.86328125 4.8125 C-2.08218374 3.1407496 -4.0924606 0.91718785 -6.44921875 -1.5 C-10.36996327 -4.11382968 -13.76182968 -3.8421469 -18.31640625 -3.87109375 C-19.62401413 -3.88463646 -19.62401413 -3.88463646 -20.95803833 -3.89845276 C-22.80223149 -3.91295862 -24.64647615 -3.92184283 -26.49072266 -3.92553711 C-29.30720108 -3.93742815 -32.12148441 -3.98660341 -34.9375 -4.03710938 C-36.73045807 -4.04657446 -38.52342958 -4.05380909 -40.31640625 -4.05859375 C-41.15613983 -4.07812607 -41.99587341 -4.09765839 -42.86105347 -4.11778259 C-44.04720749 -4.108666 -44.04720749 -4.108666 -45.25732422 -4.09936523 C-45.94776825 -4.10443588 -46.63821228 -4.10950653 -47.34957886 -4.11473083 C-50.84283483 -3.09197823 -52.27689472 -1.3803742 -54.44921875 1.5 C-55.1509458 4.46568311 -55.10296421 7.33737959 -55.04858398 10.37353516 C-55.0525267 11.25702133 -55.05646942 12.14050751 -55.06053162 13.05076599 C-55.06723176 15.96411264 -55.03810427 18.87588419 -55.0078125 21.7890625 C-55.00356169 23.81496883 -55.00123375 25.84088004 -55.00074768 27.86679077 C-54.99458523 32.1086846 -54.97189641 36.35004976 -54.9362793 40.59179688 C-54.89094942 46.03392904 -54.87625018 51.47558321 -54.87254238 56.91788673 C-54.86811814 61.09913869 -54.85282292 65.28028996 -54.83366585 69.46149826 C-54.82477667 71.46859279 -54.81805006 73.47569809 -54.81350517 75.48280716 C-54.80448124 78.28380736 -54.78210805 81.08437143 -54.75561523 83.88525391 C-54.75495056 84.71753006 -54.75428589 85.54980621 -54.75360107 86.40730286 C-54.70289578 90.28366018 -54.64865044 92.20085247 -52.44921875 95.5 C-56.32421875 93.75 -56.32421875 93.75 -57.44921875 91.5 C-59.94261347 67.7357935 -58.85357276 43.09620842 -58.07421875 19.25 C-58.04344238 18.19361328 -58.01266602 17.13722656 -57.98095703 16.04882812 C-57.33050833 -0.54436105 -57.33050833 -0.54436105 -53.79980469 -4.21459961 C-50.71811482 -5.89979873 -48.12174831 -6.16653865 -44.62890625 -6.51953125 C-43.64085495 -6.62016121 -43.64085495 -6.62016121 -42.63284302 -6.7228241 C-41.23990052 -6.8609499 -39.84629341 -6.99251127 -38.45214844 -7.11791992 C-36.34963319 -7.31017608 -34.25164166 -7.53146359 -32.15234375 -7.75585938 C-19.91841154 -8.97204356 -9.64159852 -8.37100026 0 0 Z " fill="#A8A1B5" transform="translate(106.44921875,22.5)"/>
<path d="M0 0 C0.061875 1.9490625 0.061875 1.9490625 0.125 3.9375 C0.74448787 9.72242346 3.56950943 13.45281328 7 18 C10.322321 22.54050537 10.53351456 25.48701621 10 31 C9.484375 31.495 8.96875 31.99 8.4375 32.5 C6.77104138 33.8883281 6.77104138 33.8883281 7.0234375 35.94921875 C7.28511078 37.97541858 7.63743316 39.98940209 8 42 C3.96340804 38.25173604 0.75587309 34.26761927 -1 29 C-1.66 30.32 -2.32 31.64 -3 33 C-3.66 33 -4.32 33 -5 33 C-5 33.66 -5 34.32 -5 35 C-5.66 34.67 -6.32 34.34 -7 34 C-6.484375 33.236875 -5.96875 32.47375 -5.4375 31.6875 C-4.963125 30.800625 -4.48875 29.91375 -4 29 C-4.33 28.01 -4.66 27.02 -5 26 C-6.32 26.33 -7.64 26.66 -9 27 C-9.55759693 18.26431473 -9.32878227 8.26836292 -3.48828125 1.16015625 C-2 0 -2 0 0 0 Z " fill="#F86C2D" transform="translate(112,57)"/>
<path d="M0 0 C4.09794412 1.44111035 6.05604813 2.95792432 8.75 6.41796875 C11.2928912 9.63631542 14.19295206 12.37919389 17.4375 14.875 C20.7134658 17.59165456 23.31341864 20.71332315 26 24 C23.39994603 26.60005397 21.57014239 26.26105409 18.02539062 26.2734375 C17.25388672 26.26570313 16.48238281 26.25796875 15.6875 26.25 C14.92759766 26.25773437 14.16769531 26.26546875 13.38476562 26.2734375 C9.19547789 26.25887872 5.74063527 26.10542323 2 24 C-0.16926659 20.74610012 -0.24080049 19.86604043 -0.1953125 16.11328125 C-0.18886719 15.17548828 -0.18242188 14.23769531 -0.17578125 13.27148438 C-0.15902344 12.29501953 -0.14226562 11.31855469 -0.125 10.3125 C-0.11597656 9.32443359 -0.10695313 8.33636719 -0.09765625 7.31835938 C-0.0740843 4.87866235 -0.04118022 2.43945303 0 0 Z " fill="#616E91" transform="translate(97,19)"/>
<path d="M0 0 C0.33 0.66 0.66 1.32 1 2 C0.67 2.99 0.34 3.98 0 5 C-0.22451458 7.22574335 -0.40782878 9.45581519 -0.5625 11.6875 C-0.64628906 12.86699219 -0.73007813 14.04648438 -0.81640625 15.26171875 C-0.90728516 16.61716797 -0.90728516 16.61716797 -1 18 C-2.875 18.625 -2.875 18.625 -5 19 C-7 17 -7 17 -7.125 13.875 C-7.08375 12.92625 -7.0425 11.9775 -7 11 C-12.04696769 15.14572346 -14.49037384 20.52612628 -15.42578125 26.90234375 C-15.75647915 34.24383721 -14.33636434 40.00628175 -10 46 C-6.58270393 48.84774672 -3.1801311 50.52465961 1 52 C1 52.33 1 52.66 1 53 C-11.68308438 53.91562374 -11.68308438 53.91562374 -14.8203125 51.734375 C-16.25314669 49.54797616 -17 47.62576715 -17 45 C-16.01 44.505 -16.01 44.505 -15 44 C-15.66 42.35 -16.32 40.7 -17 39 C-18.32 39 -19.64 39 -21 39 C-21.33579068 32.12250949 -21.19295632 27.14030061 -18 21 C-17.67 20.13375 -17.34 19.2675 -17 18.375 C-14.082397 11.44569288 -14.082397 11.44569288 -9.8125 9.6875 C-8.884375 9.460625 -7.95625 9.23375 -7 9 C-5 11 -5 11 -4.875 14.125 C-4.91625 15.07375 -4.9575 16.0225 -5 17 C-4.01 17 -3.02 17 -2 17 C-2.02320312 15.94039062 -2.04640625 14.88078125 -2.0703125 13.7890625 C-2.08906944 12.4010487 -2.10726972 11.0130273 -2.125 9.625 C-2.14175781 8.92632812 -2.15851563 8.22765625 -2.17578125 7.5078125 C-2.19344267 5.67102514 -2.10303261 3.83398037 -2 2 C-1.34 1.34 -0.68 0.68 0 0 Z " fill="#542439" transform="translate(103,66)"/>
<path d="M0 0 C0.99 0 1.98 0 3 0 C3 1.65 3 3.3 3 5 C3.66 5.33 4.32 5.66 5 6 C5.44158619 14.12845694 4.57292936 19.14060597 0 26 C-1.32 26 -2.64 26 -4 26 C-4 26.99 -4 27.98 -4 29 C-4.99 29.33 -5.98 29.66 -7 30 C-6.67 29.01 -6.34 28.02 -6 27 C-5.67152954 22.23717828 -5.92148521 18.8009377 -7.5625 14.3125 C-8.81310165 10.85845733 -9.59562675 8.51037886 -8 5 C-5.51755783 3.28797092 -2.92996359 2.62784934 0 2 C0 1.34 0 0.68 0 0 Z " fill="#F24838" transform="translate(127,85)"/>
<path d="M0 0 C2.125 0.375 2.125 0.375 4 1 C2.78104286 1.96297501 2.78104286 1.96297501 1.53746033 2.94540405 C-1.85981561 7.03504644 -1.69162662 9.72239995 -1.59936523 14.87353516 C-1.60527931 16.19876442 -1.60527931 16.19876442 -1.61131287 17.55076599 C-1.61801301 20.46411264 -1.58888552 23.37588419 -1.55859375 26.2890625 C-1.55434294 28.31496883 -1.552015 30.34088004 -1.55152893 32.36679077 C-1.54536648 36.6086846 -1.52267766 40.85004976 -1.48706055 45.09179688 C-1.44173067 50.53392904 -1.42703143 55.97558321 -1.42332363 61.41788673 C-1.41889939 65.59913869 -1.40360417 69.78028996 -1.3844471 73.96149826 C-1.37555792 75.96859279 -1.36883131 77.97569809 -1.36428642 79.98280716 C-1.35526249 82.78380736 -1.3328893 85.58437143 -1.30639648 88.38525391 C-1.30573181 89.21753006 -1.30506714 90.04980621 -1.30438232 90.90730286 C-1.25367703 94.78366018 -1.19943169 96.70085247 1 100 C-2.875 98.25 -2.875 98.25 -4 96 C-6.49339472 72.2357935 -5.40435401 47.59620842 -4.625 23.75 C-4.59422363 22.69361328 -4.56344727 21.63722656 -4.53173828 20.54882812 C-3.8782562 3.8782562 -3.8782562 3.8782562 0 0 Z " fill="#9FA6C2" transform="translate(53,18)"/>
<path d="M0 0 C2.34616953 2.26934282 4.42517988 4.74606288 6.5390625 7.23046875 C10.33824617 11.5165381 14.46554818 15.488745 18.55078125 19.5 C17.06578125 19.995 17.06578125 19.995 15.55078125 20.5 C13.8419412 18.87660195 12.17631408 17.20680947 10.55078125 15.5 C10.55078125 14.84 10.55078125 14.18 10.55078125 13.5 C9.97328125 13.2525 9.39578125 13.005 8.80078125 12.75 C6.22138146 11.31700012 4.48956533 9.71575324 2.55078125 7.5 C2.55078125 6.84 2.55078125 6.18 2.55078125 5.5 C1.99390625 5.273125 1.43703125 5.04625 0.86328125 4.8125 C-2.08218374 3.1407496 -4.0924606 0.91718785 -6.44921875 -1.5 C-9.50650092 -3.53818811 -10.19012276 -3.75659287 -13.64526367 -3.81884766 C-14.48590866 -3.83871735 -15.32655365 -3.85858704 -16.19267273 -3.87905884 C-17.0958876 -3.89061005 -17.99910248 -3.90216125 -18.9296875 -3.9140625 C-19.85767654 -3.93342865 -20.78566559 -3.9527948 -21.74177551 -3.9727478 C-24.706663 -4.03254244 -27.67158932 -4.07892855 -30.63671875 -4.125 C-32.64650134 -4.16317988 -34.65626756 -4.20223162 -36.66601562 -4.2421875 C-41.59361717 -4.33824393 -46.52129533 -4.42227549 -51.44921875 -4.5 C-51.44921875 -4.83 -51.44921875 -5.16 -51.44921875 -5.5 C-47.21937901 -5.98347614 -42.98790668 -6.44642011 -38.75390625 -6.89160156 C-37.31809258 -7.04534684 -35.88283545 -7.20439634 -34.44824219 -7.36914062 C-21.53926271 -8.84548137 -10.37410534 -9.00697518 0 0 Z " fill="#98A1BE" transform="translate(106.44921875,22.5)"/>
<path d="M0 0 C2 0.3125 2 0.3125 4 1 C5.58193144 4.16386287 5.43728928 7.55186648 5 11 C4.484375 11.495 3.96875 11.99 3.4375 12.5 C1.77104138 13.8883281 1.77104138 13.8883281 2.0234375 15.94921875 C2.28511078 17.97541858 2.63743316 19.98940209 3 22 C-1.03659196 18.25173604 -4.24412691 14.26761927 -6 9 C-6.66 10.32 -7.32 11.64 -8 13 C-8.66 13 -9.32 13 -10 13 C-10 13.66 -10 14.32 -10 15 C-10.66 14.67 -11.32 14.34 -12 14 C-11.525625 13.29875 -11.05125 12.5975 -10.5625 11.875 C-8.91260143 8.83918663 -8.39631536 6.40831214 -8 3 C-7.01 3.33 -6.02 3.66 -5 4 C-5 3.34 -5 2.68 -5 2 C-4.360625 1.855625 -3.72125 1.71125 -3.0625 1.5625 C-1.02454854 1.18992819 -1.02454854 1.18992819 0 0 Z " fill="#F45E33" transform="translate(117,77)"/>
<path d="M0 0 C2.625 0.375 2.625 0.375 5 1 C5.33 2.98 5.66 4.96 6 7 C6.66 7 7.32 7 8 7 C8 10.3 8 13.6 8 17 C6.35 16.67 4.7 16.34 3 16 C3 14.02 3 12.04 3 10 C2.01 10 1.02 10 0 10 C0.66 11.98 1.32 13.96 2 16 C0.0085944 16.38133299 -1.99279077 16.71325582 -4 17 C-5 16 -5 16 -5.25 12.3125 C-5.19560585 7.2629101 -3.59105086 3.59105086 0 0 Z " fill="#E9ECF3" transform="translate(68,28)"/>
<path d="M0 0 C4.47871577 3.31035513 6.96610947 5.31360207 8 11 C8.91714594 18.72863226 8.26956024 24.28973419 3.85546875 30.80078125 C0.27574517 35.04369573 -3.71859237 38.23953079 -9 40 C-11.22818441 40.06937062 -13.45834524 40.08457084 -15.6875 40.0625 C-17.45673828 40.04896484 -17.45673828 40.04896484 -19.26171875 40.03515625 C-20.16535156 40.02355469 -21.06898437 40.01195312 -22 40 C-22 39.67 -22 39.34 -22 39 C-20.78763672 38.94392578 -20.78763672 38.94392578 -19.55078125 38.88671875 C-18.48214844 38.82097656 -17.41351563 38.75523438 -16.3125 38.6875 C-15.25675781 38.62949219 -14.20101562 38.57148437 -13.11328125 38.51171875 C-9.75705899 37.96006867 -7.81867667 36.84127215 -5 35 C-4.34 35 -3.68 35 -3 35 C-3 34.01 -3 33.02 -3 32 C-1.68 32 -0.36 32 1 32 C4.49903901 25.50178469 5.45450873 19.26364697 6 12 C5.01 11.67 4.02 11.34 3 11 C3.33 9.35 3.66 7.7 4 6 C3.01 6 2.02 6 1 6 C1 6.66 1 7.32 1 8 C-0.65 8.66 -2.3 9.32 -4 10 C-4 7.36 -4 4.72 -4 2 C-3.01 3.485 -3.01 3.485 -2 5 C-1.34 3.35 -0.68 1.7 0 0 Z " fill="#D7716A" transform="translate(126,79)"/>
<path d="M0 0 C0 3 0 3 -0.9375 5.9375 C-2.52266885 11.15394218 -2.66227909 16.58757804 -3 22 C-2.34 22.33 -1.68 22.66 -1 23 C-2.125 24.5625 -2.125 24.5625 -4 26 C-7.1875 25.6875 -7.1875 25.6875 -10 25 C-10 25.66 -10 26.32 -10 27 C-12.475 26.01 -12.475 26.01 -15 25 C-16.91302307 28.26613695 -17.35674661 30.99445248 -17.625 34.75 C-17.69976562 35.73484375 -17.77453125 36.7196875 -17.8515625 37.734375 C-17.92503906 38.85585937 -17.92503906 38.85585937 -18 40 C-18.33 40 -18.66 40 -19 40 C-19.8844391 30.76252499 -18.3745054 23.70215007 -13 16 C-12.01 15.67 -11.02 15.34 -10 15 C-9.34 17.31 -8.68 19.62 -8 22 C-6.68 22 -5.36 22 -4 22 C-4.05220703 20.7315625 -4.05220703 20.7315625 -4.10546875 19.4375 C-4.27097032 12.50219628 -4.018744 7.27898752 -1 1 C-0.67 0.67 -0.34 0.34 0 0 Z " fill="#E05B41" transform="translate(106,62)"/>
<path d="M0 0 C0 0.66 0 1.32 0 2 C0.66 2 1.32 2 2 2 C2 8.93 2 15.86 2 23 C1.67 23 1.34 23 1 23 C0.79375 22.030625 0.5875 21.06125 0.375 20.0625 C-0.79713461 15.87509156 -3.03703803 12.70870233 -5.5625 9.2109375 C-7.07405079 6.88610667 -8.05146024 4.59936377 -9 2 C-6.13119883 0.56559942 -3.20485087 0 0 0 Z " fill="#404562" transform="translate(122,64)"/>
<path d="M0 0 C1.32 0.33 2.64 0.66 4 1 C3.18860062 1.64478806 2.37720123 2.28957611 1.54121399 2.9539032 C-1.83523709 7.00118016 -1.71352309 9.63071144 -1.65942383 14.73754883 C-1.66990753 15.60634674 -1.68039124 16.47514465 -1.69119263 17.37026978 C-1.71992131 20.23288786 -1.71365372 23.09429495 -1.70703125 25.95703125 C-1.72014761 27.94530247 -1.73545164 29.93356037 -1.75285339 31.92179871 C-1.79272341 37.14805116 -1.80289516 42.3739552 -1.80688477 47.6003418 C-1.81621238 52.93614281 -1.85362363 58.27173878 -1.88867188 63.60742188 C-1.9532682 74.07160499 -1.98649156 84.53563496 -2 95 C-2.33 95 -2.66 95 -3 95 C-3.06946925 83.20419432 -3.1227957 71.4084372 -3.15543652 59.61246872 C-3.17110141 54.13528983 -3.19235486 48.65825076 -3.22631836 43.18115234 C-3.25888221 37.89677809 -3.27684681 32.61253843 -3.28463173 27.32807159 C-3.29018057 25.31060924 -3.30101593 23.29315436 -3.31719017 21.27574921 C-3.33892478 18.45287578 -3.34196857 15.63056064 -3.34057617 12.80761719 C-3.351362 11.97108109 -3.36214783 11.13454498 -3.3732605 10.2726593 C-3.35478632 6.81798835 -3.27117256 4.45462794 -1.47871399 1.44952393 C-0.99073837 0.97118103 -0.50276276 0.49283813 0 0 Z " fill="#7A83A2" transform="translate(53,18)"/>
<path d="M0 0 C0.25394531 0.55558594 0.50789063 1.11117187 0.76953125 1.68359375 C2.67808116 5.2765147 5.19895072 8.41142731 7.63671875 11.66015625 C8.08660156 12.43230469 8.53648438 13.20445313 9 14 C8.67 14.99 8.34 15.98 8 17 C7.566875 16.195625 7.13375 15.39125 6.6875 14.5625 C5.19525998 11.72153646 5.19525998 11.72153646 2 11 C2.33 12.32 2.66 13.64 3 15 C2.01 15 1.02 15 0 15 C-0.99 16.485 -0.99 16.485 -2 18 C-2.99 17.67 -3.98 17.34 -5 17 C-4.67 16.67 -4.34 16.34 -4 16 C-3.84168746 14.25269861 -3.72335745 12.50169941 -3.625 10.75 C-3.28213765 6.42768613 -2.76707562 3.48892144 0 0 Z " fill="#FC853F" transform="translate(111,85)"/>
<path d="M0 0 C6.78097348 -0.05064156 13.56189833 -0.08570883 20.34301758 -0.10986328 C22.6506533 -0.11993107 24.95827625 -0.13358623 27.26586914 -0.15087891 C30.57962191 -0.17509287 33.89320626 -0.18647526 37.20703125 -0.1953125 C38.2414888 -0.20563507 39.27594635 -0.21595764 40.3417511 -0.22659302 C41.3025206 -0.22674408 42.2632901 -0.22689514 43.25317383 -0.22705078 C44.09922684 -0.231492 44.94527985 -0.23593323 45.81697083 -0.24050903 C48 0 48 0 51 2 C42.91124835 3.19997964 35.02365097 2.90935623 26.875 2.5625 C24.22664521 2.45739641 21.57817036 2.35577098 18.9296875 2.25390625 C17.76679199 2.20564697 16.60389648 2.1573877 15.40576172 2.10766602 C13.02166321 2.03229774 10.63575772 2.00559625 8.25048828 2.01538086 C5.32716143 2.00154808 2.83048838 1.686179 0 1 C0 0.67 0 0.34 0 0 Z " fill="#9599B7" transform="translate(56,119)"/>
<path d="M0 0 C0.33 0.66 0.66 1.32 1 2 C0.67 2.99 0.34 3.98 0 5 C-0.22451458 7.22574335 -0.40782878 9.45581519 -0.5625 11.6875 C-0.64628906 12.86699219 -0.73007813 14.04648438 -0.81640625 15.26171875 C-0.90728516 16.61716797 -0.90728516 16.61716797 -1 18 C-2.875 18.625 -2.875 18.625 -5 19 C-7 17 -7 17 -7.125 13.875 C-7.08375 12.92625 -7.0425 11.9775 -7 11 C-8.32 11 -9.64 11 -11 11 C-11 11.66 -11 12.32 -11 13 C-11.66 13 -12.32 13 -13 13 C-13.103125 13.70125 -13.20625 14.4025 -13.3125 15.125 C-14 18 -14 18 -15.4375 20.6875 C-17.20300682 24.43037445 -17.83477173 27.86154557 -18.47265625 31.92578125 C-18.73369141 32.95251953 -18.73369141 32.95251953 -19 34 C-19.99 34.495 -19.99 34.495 -21 35 C-21.33814407 29.47698017 -20.38944223 25.96268772 -18 21 C-17.67 20.13375 -17.34 19.2675 -17 18.375 C-14.082397 11.44569288 -14.082397 11.44569288 -9.8125 9.6875 C-8.884375 9.460625 -7.95625 9.23375 -7 9 C-5 11 -5 11 -4.875 14.125 C-4.91625 15.07375 -4.9575 16.0225 -5 17 C-4.01 17 -3.02 17 -2 17 C-2.02320312 15.94039062 -2.04640625 14.88078125 -2.0703125 13.7890625 C-2.08906944 12.4010487 -2.10726972 11.0130273 -2.125 9.625 C-2.14175781 8.92632812 -2.15851563 8.22765625 -2.17578125 7.5078125 C-2.19344267 5.67102514 -2.10303261 3.83398037 -2 2 C-1.34 1.34 -0.68 0.68 0 0 Z " fill="#463A4F" transform="translate(103,66)"/>
<path d="M0 0 C0.33 0 0.66 0 1 0 C1.49029622 7.23186925 1.49029622 7.23186925 -0.875 10.9375 C-4.89315663 14.83747555 -8.67176118 14.32534957 -14.06640625 14.29296875 C-17.78369646 13.92173471 -19.6268897 12.88163393 -22 10 C-22 9.34 -22 8.68 -22 8 C-21.01 8.33 -20.02 8.66 -19 9 C-19 9.66 -19 10.32 -19 11 C-18.01 10.67 -17.02 10.34 -16 10 C-16 10.66 -16 11.32 -16 12 C-14.68 12 -13.36 12 -12 12 C-12 11.34 -12 10.68 -12 10 C-9.69 10 -7.38 10 -5 10 C-4.67 9.34 -4.34 8.68 -4 8 C-3.34 8 -2.68 8 -2 8 C-1.7834375 6.576875 -1.7834375 6.576875 -1.5625 5.125 C-1 2 -1 2 0 0 Z " fill="#FD5944" transform="translate(121,104)"/>
<path d="M0 0 C0.33 0 0.66 0 1 0 C1.69221691 7.57592947 1.50930657 12.92668147 -3.2109375 19.08984375 C-6.64036846 22.75139777 -10.18778945 25.39592982 -15 27 C-17.22818441 27.06937062 -19.45834524 27.08457084 -21.6875 27.0625 C-23.45673828 27.04896484 -23.45673828 27.04896484 -25.26171875 27.03515625 C-26.16535156 27.02355469 -27.06898437 27.01195313 -28 27 C-28 26.67 -28 26.34 -28 26 C-27.19175781 25.96261719 -26.38351563 25.92523438 -25.55078125 25.88671875 C-24.48214844 25.82097656 -23.41351563 25.75523438 -22.3125 25.6875 C-21.25675781 25.62949219 -20.20101562 25.57148437 -19.11328125 25.51171875 C-15.75705899 24.96006867 -13.81867667 23.84127215 -11 22 C-10.34 22 -9.68 22 -9 22 C-9 21.01 -9 20.02 -9 19 C-7.68 19 -6.36 19 -5 19 C-1.6843904 12.84243932 -0.58126587 6.88341167 0 0 Z " fill="#CC4856" transform="translate(132,92)"/>
<path d="M0 0 C0.66 0 1.32 0 2 0 C2 0.99 2 1.98 2 3 C2.66 3.33 3.32 3.66 4 4 C3.96744792 5.98567708 3.93489583 7.97135417 3.90234375 9.95703125 C3.91736783 12.20305461 3.91736783 12.20305461 5 15 C4.67 15.66 4.34 16.32 4 17 C-0.29 16.34 -4.58 15.68 -9 15 C-7.68 14.01 -6.36 13.02 -5 12 C-5.33 10.35 -5.66 8.7 -6 7 C-5.01 7 -4.02 7 -3 7 C-2.67 8.98 -2.34 10.96 -2 13 C-0.68 13.33 0.64 13.66 2 14 C2 10.7 2 7.4 2 4 C1.34 4 0.68 4 0 4 C0 2.68 0 1.36 0 0 Z " fill="#57607A" transform="translate(74,31)"/>
<path d="M0 0 C0.33 0.99 0.66 1.98 1 3 C2.32 2.67 3.64 2.34 5 2 C5.18175781 2.54269531 5.36351563 3.08539063 5.55078125 3.64453125 C5.80214844 4.35996094 6.05351563 5.07539062 6.3125 5.8125 C6.67794922 6.87404297 6.67794922 6.87404297 7.05078125 7.95703125 C8.06724258 10.14472373 9.20820594 11.40896718 11 13 C4.43960548 11.37062097 0.77104892 9.71739675 -3 4 C-3 3.34 -3 2.68 -3 2 C-2.01 1.34 -1.02 0.68 0 0 Z " fill="#DB384D" transform="translate(93,105)"/>
<path d="M0 0 C0 3 0 3 -0.9375 5.875 C-2.62437059 11.41415661 -2.67163815 17.25366758 -3 23 C-5.31 23.33 -7.62 23.66 -10 24 C-10.99 22.68 -11.98 21.36 -13 20 C-13.99 20.99 -14.98 21.98 -16 23 C-14.87548273 20.0280615 -13.77706209 17.66559313 -12 15 C-11.34 15 -10.68 15 -10 15 C-9.34 17.31 -8.68 19.62 -8 22 C-6.68 22 -5.36 22 -4 22 C-4.05220703 20.7315625 -4.05220703 20.7315625 -4.10546875 19.4375 C-4.27097032 12.50219628 -4.018744 7.27898752 -1 1 C-0.67 0.67 -0.34 0.34 0 0 Z " fill="#CA6A51" transform="translate(106,62)"/>
<path d="M0 0 C0.6875 1.75 0.6875 1.75 1 4 C-2.68454189 10.20554424 -8.3088854 14.18408467 -14.9375 16.75 C-19.76458244 17.3351009 -23.8054 17.7964 -28 15 C-27.13117188 14.96261719 -26.26234375 14.92523438 -25.3671875 14.88671875 C-16.73919198 14.51094837 -16.73919198 14.51094837 -9 11 C-8.13375 10.4225 -7.2675 9.845 -6.375 9.25 C-3.39384549 6.42574836 -1.88840126 3.63692095 0 0 Z " fill="#BE97AB" transform="translate(132,104)"/>
<path d="M0 0 C0.66 0.33 1.32 0.66 2 1 C1.50628906 1.78761719 1.01257813 2.57523437 0.50390625 3.38671875 C-4.18033196 11.35086621 -6.10818733 17.55679182 -6 27 C-7.32 27.33 -8.64 27.66 -10 28 C-9.77570313 26.90558594 -9.77570313 26.90558594 -9.546875 25.7890625 C-9.21602753 24.10174042 -8.90730656 22.40958307 -8.640625 20.7109375 C-7.50410066 13.91452193 -5.06263672 8.14865234 -2 2 C-1.34 2 -0.68 2 0 2 C0 1.34 0 0.68 0 0 Z " fill="#3D3347" transform="translate(92,77)"/>
<path d="M0 0 C2 2 2 2 3 4 C2.34 4 1.68 4 1 4 C1 5.65 1 7.3 1 9 C0.67 8.01 0.34 7.02 0 6 C-0.99 6 -1.98 6 -3 6 C-3.33 5.34 -3.66 4.68 -4 4 C-5.98 4.33 -7.96 4.66 -10 5 C-10 3.68 -10 2.36 -10 1 C-6.21674266 -1.08731439 -4.20803567 -1.40267856 0 0 Z " fill="#4D587A" transform="translate(76,25)"/>
<path d="M0 0 C3.72755198 1.24251733 5.27400351 3.20751579 8 6 C9.3203296 7.01710743 10.65136399 8.02073564 12 9 C8.59975479 9.35040695 5.38657418 9.530811 2 9 C-2 4.61904762 -2 4.61904762 -2 1 C-1.34 0.67 -0.68 0.34 0 0 Z " fill="#222D50" transform="translate(88,110)"/>
<path d="M0 0 C0 0.33 0 0.66 0 1 C-11.22 1 -22.44 1 -34 1 C-34 0.67 -34 0.34 -34 0 C-30.21047782 -0.39913525 -26.41840346 -0.76478232 -22.625 -1.125 C-21.03365234 -1.29322266 -21.03365234 -1.29322266 -19.41015625 -1.46484375 C-12.54871855 -2.0962644 -6.66385575 -1.7895933 0 0 Z " fill="#AAB1CC" transform="translate(96,16)"/>
<path d="M0 0 C0.66 0 1.32 0 2 0 C2.061875 1.9490625 2.061875 1.9490625 2.125 3.9375 C2.64305755 8.98258357 4.69397246 12.07820384 7.72265625 16.0546875 C9 18 9 18 9 21 C7.68 21 6.36 21 5 21 C4 19 4 19 3.5625 16.5 C3.19851448 13.84208667 3.19851448 13.84208667 1 12 C0.5859375 9.8359375 0.5859375 9.8359375 0.375 7.375 C0.30023438 6.55773438 0.22546875 5.74046875 0.1484375 4.8984375 C0.09945312 4.27195312 0.05046875 3.64546875 0 3 C-0.99 3.66 -1.98 4.32 -3 5 C-1.125 1.125 -1.125 1.125 0 0 Z " fill="#D4784F" transform="translate(110,57)"/>
<path d="M0 0 C0.99 0 1.98 0 3 0 C3 3.3 3 6.6 3 10 C1.35 9.67 -0.3 9.34 -2 9 C-2 7.02 -2 5.04 -2 3 C-2.66 2.67 -3.32 2.34 -4 2 C-2.68 2 -1.36 2 0 2 C0 1.34 0 0.68 0 0 Z " fill="#F3F7F6" transform="translate(73,35)"/>
<path d="M0 0 C0.33 0.66 0.66 1.32 1 2 C1.99 2 2.98 2 4 2 C4 5.63 4 9.26 4 13 C3.67 13 3.34 13 3 13 C3 10.03 3 7.06 3 4 C1.8553125 5.175625 1.8553125 5.175625 0.6875 6.375 C-2 9 -2 9 -5 11 C-4.50769231 4.6 -4.50769231 4.6 -1.9375 1.5625 C-0.9784375 0.7890625 -0.9784375 0.7890625 0 0 Z " fill="#504756" transform="translate(109,53)"/>
<path d="M0 0 C0.99 0.33 1.98 0.66 3 1 C2.67 14.2 2.34 27.4 2 41 C1.67 41 1.34 41 1 41 C0.67 27.47 0.34 13.94 0 0 Z " fill="#9496B3" transform="translate(123,43)"/>
<path d="M0 0 C0.99 0.66 1.98 1.32 3 2 C3 3.32 3 4.64 3 6 C2.34 6 1.68 6 1 6 C1 6.66 1 7.32 1 8 C-0.65 8.66 -2.3 9.32 -4 10 C-4 7.36 -4 4.72 -4 2 C-3.01 3.485 -3.01 3.485 -2 5 C-1.34 3.35 -0.68 1.7 0 0 Z " fill="#CE634E" transform="translate(126,79)"/>
<path d="M0 0 C3 1 3 1 4 3 C4.99 3 5.98 3 7 3 C7 6.96 7 10.92 7 15 C6.67 15 6.34 15 6 15 C5.7525 13.96875 5.505 12.9375 5.25 11.875 C4.18444117 8.0683297 2.26015803 5.23955984 0 2 C0 1.34 0 0.68 0 0 Z " fill="#533A45" transform="translate(117,72)"/>
<path d="M0 0 C0.99 0.33 1.98 0.66 3 1 C3 1.66 3 2.32 3 3 C3.99 2.67 4.98 2.34 6 2 C6 2.66 6 3.32 6 4 C9.63 4.33 13.26 4.66 17 5 C17 5.33 17 5.66 17 6 C6.08616188 6.62663185 6.08616188 6.62663185 1.75 4.125 C0 2 0 2 0 0 Z " fill="#F25349" transform="translate(99,112)"/>
<path d="M0 0 C0.71484375 1.734375 0.71484375 1.734375 1 4 C-0.43359375 6.140625 -0.43359375 6.140625 -2.4375 8.25 C-3.09621094 8.95640625 -3.75492188 9.6628125 -4.43359375 10.390625 C-4.95050781 10.92171875 -5.46742187 11.4528125 -6 12 C-6.99 11.67 -7.98 11.34 -9 11 C-8.2575 10.484375 -7.515 9.96875 -6.75 9.4375 C-3.46371455 6.52465608 -2.01236241 3.87566094 0 0 Z " fill="#C792A6" transform="translate(132,104)"/>
<path d="M0 0 C0.33 0 0.66 0 1 0 C1 2.31 1 4.62 1 7 C0.34 6.01 -0.32 5.02 -1 4 C-1.66 5.98 -2.32 7.96 -3 10 C-3.66 9.67 -4.32 9.34 -5 9 C-4.42680151 5.13091017 -2.56186024 2.88209277 0 0 Z " fill="#F37F36" transform="translate(110,59)"/>
<path d="M0 0 C1.98 0.495 1.98 0.495 4 1 C4 2.32 4 3.64 4 5 C2.35 5 0.7 5 -1 5 C-0.67 3.35 -0.34 1.7 0 0 Z " fill="#5E6476" transform="translate(68,30)"/>
<path d="M0 0 C2.97 1.65 5.94 3.3 9 5 C9 5.33 9 5.66 9 6 C6.69 6 4.38 6 2 6 C1.34 4.02 0.68 2.04 0 0 Z " fill="#252A43" transform="translate(91,113)"/>
<path d="M0 0 C1.38111722 2.2747813 2.05694702 3.50171361 1.75 6.1875 C1 8 1 8 -1 9 C-2.0326802 6.21176345 -2.04509293 5.1322726 -1.0625 2.25 C-0.711875 1.5075 -0.36125 0.765 0 0 Z " fill="#FC7725" transform="translate(109,62)"/>
<path d="M0 0 C1.98 0 3.96 0 6 0 C6.33 0.66 6.66 1.32 7 2 C4.04335481 3.4783226 1.25770263 3.06032783 -2 3 C-1.34 2.67 -0.68 2.34 0 2 C0 1.34 0 0.68 0 0 Z " fill="#F95735" transform="translate(109,114)"/>
<path d="M0 0 C0.33 0 0.66 0 1 0 C1.12375 1.0725 1.2475 2.145 1.375 3.25 C1.89643936 6.37863615 2.40088254 8.33480424 4 11 C3.01 11.33 2.02 11.66 1 12 C0.03929566 9.11788698 -0.10581883 7.30149956 -0.0625 4.3125 C-0.05347656 3.50425781 -0.04445313 2.69601563 -0.03515625 1.86328125 C-0.02355469 1.24839844 -0.01195313 0.63351563 0 0 Z " fill="#F33C42" transform="translate(89,95)"/>
<path d="M0 0 C0.33 2.31 0.66 4.62 1 7 C-0.98 6.01 -2.96 5.02 -5 4 C-4.67 3.01 -4.34 2.02 -4 1 C-2 0 -2 0 0 0 Z " fill="#485072" transform="translate(63,39)"/>
<path d="M0 0 C0.6875 1.75 0.6875 1.75 1 4 C-0.3125 6.25 -0.3125 6.25 -2 8 C-2.66 8 -3.32 8 -4 8 C-3.6875 6.0625 -3.6875 6.0625 -3 4 C-2.01 3.67 -1.02 3.34 0 3 C0 2.01 0 1.02 0 0 Z " fill="#F33846" transform="translate(130,101)"/>
<path d="M0 0 C0.99 0 1.98 0 3 0 C3.33 2.31 3.66 4.62 4 7 C2.35 7 0.7 7 -1 7 C-0.34 6.34 0.32 5.68 1 5 C0.67958603 2.39719432 0.67958603 2.39719432 0 0 Z " fill="#9FA1AE" transform="translate(68,38)"/>
<path d="M0 0 C2.64 1.98 5.28 3.96 8 6 C7.67 6.66 7.34 7.32 7 8 C3.6223242 6.87410807 2.28636808 5.68056948 0 3 C0 2.01 0 1.02 0 0 Z " fill="#A9B5CD" transform="translate(100,18)"/>
<path d="M0 0 C2.0625 0.4375 2.0625 0.4375 4 1 C1.03 3.475 1.03 3.475 -2 6 C-1.125 1.125 -1.125 1.125 0 0 Z " fill="#737C9D" transform="translate(53,18)"/>
<path d="M0 0 C0.99 0.33 1.98 0.66 3 1 C3.33 2.98 3.66 4.96 4 7 C2 7 2 7 0.3125 5.75 C-1 4 -1 4 -0.6875 1.8125 C-0.460625 1.214375 -0.23375 0.61625 0 0 Z " fill="#FE5F3C" transform="translate(100,108)"/>
<path d="" fill="#FFFFFF" transform="translate(0,0)"/>
<path d="" fill="#FFFFFF" transform="translate(0,0)"/>
<path d="" fill="#FFFFFF" transform="translate(0,0)"/>
<path d="" fill="#FFFFFF" transform="translate(0,0)"/>
<path d="" fill="#FFFFFF" transform="translate(0,0)"/>
<path d="" fill="#FFFFFF" transform="translate(0,0)"/>
<path d="" fill="#FFFFFF" transform="translate(0,0)"/>
<path d="" fill="#FFFFFF" transform="translate(0,0)"/>
<path d="" fill="#FFFFFF" transform="translate(0,0)"/>
<path d="" fill="#FFFFFF" transform="translate(0,0)"/>
<path d="" fill="#FFFFFF" transform="translate(0,0)"/>
<path d="" fill="#FFFFFF" transform="translate(0,0)"/>
<path d="" fill="#FFFFFF" transform="translate(0,0)"/>
<path d="" fill="#FFFFFF" transform="translate(0,0)"/>
<path d="" fill="#FFFFFF" transform="translate(0,0)"/>
<path d="" fill="#FFFFFF" transform="translate(0,0)"/>
</svg>
